<?xml version="1.0" encoding="UTF-8"?><svg xmlns="http://www.w3.org/2000/svg" viewBox="0 0 30 24"><path d="M13.79.06c.24.1.41.31.45.57l.66,3.97,3.97.66c.25.04.47.21.57.45s.07.51-.08.72l-1.8,2.58c-.1,0-.21,0-.31,0-1.09,0-2.11.29-3,.8v-.05c0-2.48-2.02-4.5-4.5-4.5s-4.5,2.02-4.5,4.5,2.02,4.5,4.5,4.5c.38,0,.75-.05,1.1-.14-1.72.85-2.97,2.49-3.27,4.45l-1.14.8c-.21.15-.48.18-.72.08s-.41-.31-.45-.57l-.66-3.96-3.97-.66c-.25-.04-.47-.21-.57-.45s-.07-.51.08-.72l2.33-3.32L.14,6.43c-.15-.21-.18-.48-.08-.72s.31-.41.57-.45l3.97-.66.66-3.97c.04-.25.21-.47.45-.57s.51-.07.72.08l3.32,2.33L13.07.14c.21-.15.48-.18.72-.08h0ZM6.75,9.75c0-1.66,1.34-3,3-3s3,1.34,3,3-1.34,3-3,3-3-1.34-3-3ZM30,20.25c0,2.07-1.68,3.75-3.75,3.75h-12.75c-2.48,0-4.5-2.02-4.5-4.5,0-2.23,1.62-4.08,3.75-4.44v-.06c0-2.48,2.02-4.5,4.5-4.5,1.64,0,3.07.87,3.85,2.18.61-.43,1.35-.68,2.15-.68,2.07,0,3.75,1.68,3.75,3.75,0,.28-.03.55-.09.81,1.75.31,3.08,1.85,3.08,3.69h0Z" style="stroke-width:0px;"/></svg>