<?xml version="1.0" encoding="utf-8"?>
<!-- Generator: Adobe Illustrator 28.2.0, SVG Export Plug-In . SVG Version: 6.00 Build 0)  -->
<svg version="1.1" xmlns="http://www.w3.org/2000/svg" xmlns:xlink="http://www.w3.org/1999/xlink" x="0px" y="0px"
	 viewBox="0 0 199.9 256" style="enable-background:new 0 0 199.9 256;" xml:space="preserve">
<style type="text/css">
	.st0{fill-rule:evenodd;clip-rule:evenodd;}
</style>
<path class="st0" d="M108.7,217.5v-0.9c0.4-0.5,0.7-1.1,0.7-1.7s-0.2-1.2-0.7-1.7v-0.9H91.2v0.9c-0.5,0.5-0.7,1.1-0.7,1.8
	s0.2,1.3,0.7,1.8v0.9L108.7,217.5L108.7,217.5z M124.1,202.3c0-1.4-1.2-2.6-2.6-2.6H78.3c-1.4,0-2.6,1.2-2.6,2.6s1.2,2.6,2.6,2.6
	h43.2C123,204.9,124.1,203.7,124.1,202.3 M148.1,118.2c0-1.4-1.2-2.6-2.6-2.6h-26.1c-1.4,0-2.6,1.2-2.6,2.6s1.2,2.6,2.6,2.6h26.1
	C146.9,120.8,148.1,119.7,148.1,118.2 M132.5,141.5c5.2,0,9.5-2.6,9.5-5.9s-4.2-5.9-9.5-5.9s-9.5,2.6-9.5,5.9
	S127.2,141.5,132.5,141.5 M82.9,118.2c0-1.4-1.2-2.6-2.6-2.6h-26c-1.4,0-2.6,1.2-2.6,2.6s1.2,2.6,2.6,2.6h26.1
	C81.7,120.8,82.9,119.7,82.9,118.2 M67.3,141.5c5.2,0,9.5-2.6,9.5-5.9s-4.2-5.9-9.5-5.9s-9.5,2.6-9.5,5.9S62,141.5,67.3,141.5"/>
<path class="st0" d="M195.8,134.5c-1.5-1.1-3.3-1.6-5.2-1.5c2.2-10.6,3.7-21.1,4.5-31.3c2.3-28.5-5.1-52.9-21.4-70.5
	C156.3,12.3,129.4,1.5,99.9,1.5c-7.4,0-14,0.7-17.8,1.4c-1.7-0.9-3.1-1.7-4.3-2.5l-0.3-0.2c-0.7-0.4-1.6-0.3-2.1,0.4l-2,2.9
	c-0.2,0.3-0.3,0.8-0.2,1.1c0.1,0.4,0.3,0.8,0.7,1l0.3,0.2c5.1,3.3,10.7,5.9,15.3,6.9c5.1,1.1,7.6,3.6,8.7,4.9l0.2,0.2
	c0.4,0.6,1.2,0.7,1.9,0.4l3.2-1.6c0.4-0.2,0.7-0.6,0.8-1s0-0.9-0.2-1.2l-0.2-0.4c-0.9-1.2-3.3-4.1-8-6.2c1.6-0.1,3.3-0.1,4.3-0.1
	c27.7,0,52.9,10,69.1,27.5c15.3,16.6,21.9,38.7,19.8,65.7c-0.9,11.7-2.8,23.8-5.6,36l-0.3,1.6c-0.1,0.6,0,1.1,0.4,1.5
	s0.9,0.7,1.4,0.7h2.1c0.4,0,0.8-0.1,1.1-0.4l0.3-0.3c1.3-1,2.9-1.3,3.8-0.7c1.9,1.3,1.9,6.1,0,11.8L190,158c-1.1,3.4-2.2,7-3.7,11.2
	c-2.1,6.3-5.9,10.6-10.3,11.6l0.1-0.2l0.1-0.3c0.2-0.6,0.5-1.1,0.7-1.7c0.2-0.5,0.2-1,0-1.4c-0.2-0.4-0.6-0.8-1-1l-2.4-0.9
	c-0.9-0.4-2,0.1-2.4,1c-10.5,26.3-23.6,46.3-41.3,62.7c-9.5,8.9-18.8,10.7-29.8,10.7s-20.3-1.8-29.8-10.7
	c-17.7-16.4-30.8-36.4-41.3-62.7c-0.4-0.9-1.4-1.4-2.4-1.1l-2.4,0.9c-0.5,0.2-0.8,0.6-1,1c-0.2,0.4-0.2,1,0,1.4
	c0.3,0.7,0.5,1.3,0.8,2l0.1,0.2c-4.4-1-8.1-5.2-10.2-11.6c-1.4-4.2-2.6-7.7-3.7-11.1l-2.2-6.6c-1.9-5.7-1.9-10.5,0-11.8
	c0.9-0.6,2.5-0.3,3.9,0.8l0.4,0.3c0.3,0.2,0.7,0.3,1.1,0.3c0.9-0.1,3.4-0.3,3.6-0.4c2.2-0.6,4.3-2.4,5.9-5.2
	c2.5-4.4,4.2-10.7,6.2-18c4-14.6,9.1-32.8,22.1-41.1c14.6-9.2,27.2-7.6,41.9-5.7c14.1,1.8,30,3.9,50.8-3.3l0.2,0.1
	c1.6,11.3,8.7,26.1,24,34.1c1.3,0.6,2.8,0.2,3.5-1.1c0.3-0.6,0.4-1.3,0.2-2c-0.2-0.7-0.7-1.2-1.3-1.5c-14.1-7.3-20.2-20.9-21.3-31.2
	c-0.1-0.8-0.5-1.5-1.2-1.9l-2.3-1.5c-0.7-0.4-1.5-0.5-2.3-0.2c-20.2,7.3-35.8,5.3-49.6,3.5c-14.9-1.9-29.1-3.7-45.2,6.5
	c-14.7,9.3-20,28.6-24.4,44.2c-1.9,6.9-3.6,13-5.7,16.7c-0.7,1.3-1.4,2-1.9,2.3c-2.5-11.6-4.3-23-5.1-34C6.7,46.1,39.7,24,59.8,15.6
	l0.1-0.1c2.5,1.1,4.7,1.9,6.8,2.3c5.1,1.1,7.6,3.6,8.6,5l0.2,0.2c0.4,0.6,1.2,0.7,1.9,0.4l3.1-1.6c0.4-0.2,0.7-0.5,0.8-1
	s0-0.9-0.2-1.2l-0.2-0.3c-1.3-1.8-5-6-12.7-7.8c-3.8-0.9-8.6-3-13.1-6l-0.3-0.2c-0.7-0.5-1.6-0.3-2.1,0.4l-2,2.9
	c-0.2,0.3-0.3,0.7-0.2,1.1c0.1,0.4,0.3,0.7,0.7,1l0.3,0.2c0.5,0.3,0.9,0.6,1.4,0.9C19,27.9,1.5,60.6,4.8,101.6
	c0.8,10.2,2.3,20.7,4.5,31.3c-1.9-0.1-3.7,0.4-5.2,1.5c-2.6,1.8-6.3,6.7-2.3,18.9l2,6.1c1.3,4.1,2.4,7.5,3.8,11.8
	c4,11.9,12.1,16.2,18.3,16.2c0.2,0,0.5,0,0.7,0c10.3,23.1,22.7,41,39.2,56.3C77.5,254.5,89.1,256,99.9,256s22.4-1.5,34.1-12.4
	c16.4-15.3,28.9-33.2,39.2-56.3c0.2,0,0.5,0,0.7,0c6.2,0,14.3-4.2,18.3-16.2c1.6-4.6,2.8-8.5,3.9-11.7l2-6.1
	C202.1,141.2,198.4,136.3,195.8,134.5"/>
<path class="st0" d="M100.1,173.8c2.8,0,5.6-0.4,8.7-1.3c1.4-0.4,2.2-1.9,1.8-3.2c-0.2-0.7-0.6-1.2-1.3-1.6c-0.6-0.3-1.3-0.4-2-0.2
	c-5.2,1.5-9.3,1.5-14.5,0c-0.7-0.2-1.3-0.1-2,0.2c-0.6,0.3-1.1,0.9-1.3,1.6c-0.4,1.4,0.4,2.8,1.8,3.2
	C94.5,173.4,97.3,173.8,100.1,173.8"/>
</svg>
