<?xml version="1.0" encoding="UTF-8"?><svg xmlns="http://www.w3.org/2000/svg" viewBox="0 0 199.87 256"><path d="M148.1,118.23c0-1.43-1.17-2.61-2.6-2.61h-26.05c-1.44,0-2.61,1.17-2.61,2.61s1.17,2.61,2.61,2.61h26.05c1.43,0,2.6-1.17,2.6-2.61M123,135.55c0,3.32,4.15,5.91,9.46,5.91s9.48-2.65,9.48-5.91-4.25-5.92-9.48-5.92-9.46,2.66-9.46,5.93M82.9,118.23c0-1.43-1.17-2.61-2.61-2.61h-26.04c-1.43,0-2.61,1.17-2.61,2.61s1.17,2.61,2.61,2.61h26.05c1.43,0,2.6-1.17,2.6-2.61M57.8,135.55c0,3.32,4.15,5.91,9.47,5.91s9.48-2.65,9.48-5.91-4.25-5.92-9.48-5.92-9.47,2.66-9.47,5.93M121.89,189.23h-43.91c-1.44,0-2.61,1.17-2.61,2.61s1.17,2.61,2.61,2.61h43.91c1.44,0,2.61-1.17,2.61-2.61s-1.17-2.61-2.61-2.61M121.89,202.34h-43.91c-1.44,0-2.61,1.17-2.61,2.61s1.17,2.61,2.61,2.61h43.91c1.44,0,2.61-1.17,2.61-2.61s-1.17-2.61-2.61-2.61M121.89,215.45h-43.91c-1.44,0-2.61,1.17-2.61,2.61s1.17,2.61,2.61,2.61h43.91c1.44,0,2.61-1.17,2.61-2.61s-1.17-2.61-2.61-2.61" style="fill-rule:evenodd; stroke-width:0px;"/><path d="M25.79,181.14c-.83-.09-1.52-.21-2.07-.36l-.15-.05c-2.51-.69-7.13-3.09-9.97-11.53-1.48-4.39-2.68-8.12-3.76-11.42l-2.06-6.36c-1.88-5.74-1.9-10.49-.03-11.8.31-.22.72-.33,1.17-.33.83,0,1.81.35,2.61,1,.57.44.71.78.75.89,2.84,10.9,7.29,24.36,11.91,36l1.62,3.95h-.01ZM99.94,249.67c-11.02,0-20.3-1.82-29.84-10.68-15.37-14.28-27.1-30.96-36.89-52.46,3.13-.15,7.44-.87,13.46-4.34,5.52-3.18,10.52-6.36,15.35-9.45l.29-.18c13.96-8.92,24.98-15.96,37.63-15.96,12.65,0,23.68,7.05,37.66,15.98,4.9,3.13,9.97,6.36,15.61,9.61,6.03,3.47,10.34,4.19,13.46,4.34-9.8,21.51-21.52,38.18-36.89,52.46-9.54,8.87-18.83,10.68-29.84,10.68ZM192.11,151.44l-2.07,6.35c-1.07,3.3-2.27,7.03-3.75,11.42-2.84,8.44-7.47,10.84-10,11.54l-.11.04c-.56.15-1.26.27-2.1.36l1.61-3.95c4.62-11.64,9.07-25.09,11.9-35.97.09-.28.34-.59.76-.92.78-.62,1.75-1,2.61-1,.46,0,.87.12,1.17.33,1.87,1.32,1.85,6.06-.02,11.8ZM195.78,134.48c-1.48-1.07-3.34-1.59-5.22-1.52,2.17-10.55,3.7-21.1,4.51-31.35,2.28-28.49-5.13-52.86-21.43-70.49C156.27,12.33,129.4,1.55,99.94,1.55c-7.39,0-14,.72-17.77,1.41-1.67-.88-3.06-1.68-4.34-2.52l-.31-.2c-.67-.44-1.59-.27-2.06.4l-1.97,2.91c-.23.33-.31.74-.24,1.14.08.4.31.75.65.97l.31.2c5.11,3.35,10.69,5.87,15.29,6.91,5.08,1.14,7.59,3.59,8.64,4.94l.2.25c.43.56,1.2.73,1.86.4l3.15-1.65c.38-.2.65-.56.75-.97s.02-.86-.24-1.22l-.25-.34c-.89-1.24-3.34-4.14-8.02-6.21,1.62-.06,3.29-.11,4.33-.11,27.73,0,52.9,10.04,69.06,27.54,15.28,16.55,21.94,38.66,19.77,65.72-.96,11.96-2.84,24.07-5.58,35.99-2.77,11.99-9.13,30.96-14.84,44.24h-.22c-3.67,0-7.09-.67-12.33-3.69-5.59-3.22-10.59-6.41-15.44-9.51-14.08-8.99-26.24-16.76-40.45-16.78-14.15.01-26.32,7.78-40.41,16.78-4.84,3.09-9.84,6.28-15.43,9.51-5.23,3-8.75,3.69-12.33,3.69h-.21c-5.13-11.92-10.76-28.31-14.1-41.01,1.97-.71,3.87-2.51,5.26-4.98,2.45-4.36,4.2-10.67,6.22-17.98,4.03-14.64,9.07-32.85,22.09-41.07,14.62-9.21,27.25-7.59,41.87-5.69,14.09,1.81,30.04,3.87,50.79-3.35l.18.12c1.58,11.28,8.69,26.09,23.98,34.06,1.28.65,2.84.15,3.51-1.11.33-.61.39-1.32.18-1.99-.21-.66-.66-1.2-1.29-1.52-14.06-7.33-20.24-20.95-21.35-31.25-.08-.78-.53-1.5-1.2-1.93l-2.29-1.45c-.69-.44-1.52-.53-2.28-.25-20.19,7.31-35.83,5.29-49.64,3.5-14.95-1.9-29.07-3.72-45.24,6.48-14.73,9.28-20.05,28.57-24.36,44.14-1.92,6.95-3.58,12.95-5.71,16.74-.72,1.28-1.43,1.96-1.91,2.31-2.54-11.57-4.27-23-5.16-34C6.71,46.13,39.74,23.95,59.81,15.62l.12-.04c2.45,1.07,4.75,1.84,6.84,2.31,5.08,1.15,7.59,3.59,8.64,4.95l.19.24c.43.56,1.2.73,1.87.41l3.14-1.65c.39-.2.66-.55.76-.97s.02-.87-.24-1.22l-.25-.36c-1.26-1.75-5.02-6.03-12.68-7.76-3.85-.87-8.64-3.04-13.12-5.97l-.3-.2c-.67-.45-1.59-.28-2.07.4l-1.97,2.9c-.23.33-.31.75-.24,1.14.08.39.31.74.65.96l.31.2c.46.3.94.59,1.41.87C19.03,27.92,1.53,60.6,4.8,101.62c.81,10.16,2.32,20.7,4.51,31.35-1.87-.07-3.72.44-5.22,1.51-2.59,1.84-6.34,6.73-2.33,18.93,0,0,4.28,13.23,5.83,17.84,4.02,11.91,12.11,16.15,18.33,16.15.24,0,.46-.02.71-.04,10.28,23.11,22.73,41,39.16,56.27,11.7,10.87,23.33,12.37,34.15,12.37s22.45-1.51,34.15-12.39c16.43-15.27,28.88-33.15,39.16-56.26.24.02.47.04.71.04,6.22,0,14.31-4.24,18.32-16.16,1.54-4.56,5.83-17.82,5.83-17.82,4.01-12.22.27-17.11-2.32-18.94h0Z" style="fill-rule:evenodd; stroke-width:0px;"/></svg>