<?xml version="1.0" encoding="UTF-8"?><svg xmlns="http://www.w3.org/2000/svg" viewBox="0 0 191.77 256"><path d="M128.36,114.72c5.96,0,10.81,6.61,10.81,14.74s-4.85,14.73-10.8,14.73-10.81-6.61-10.81-14.73,4.85-14.74,10.81-14.74M128.36,149.19c8.72,0,15.81-8.85,15.81-19.73s-7.09-19.75-15.81-19.75-15.81,8.86-15.81,19.74,7.1,19.73,15.81,19.73M63.41,114.72c5.96,0,10.81,6.61,10.81,14.74s-4.85,14.73-10.8,14.73-10.81-6.61-10.81-14.73,4.85-14.74,10.81-14.74M63.41,149.19c8.72,0,15.81-8.85,15.81-19.73s-7.09-19.75-15.81-19.75-15.81,8.86-15.81,19.74,7.09,19.73,15.81,19.73M75.34,213.81c5.52-3.04,12.91-4.78,20.55-4.78s15.04,1.73,20.55,4.78h-41.1ZM66.59,223.74c.38-1.7,1.23-3.35,2.52-4.92h53.57c1.29,1.57,2.13,3.22,2.51,4.92h-58.61,0ZM114.9,238.68c-5.33,2.57-12.01,3.97-19,3.97s-13.67-1.4-19-3.98h38,0ZM124.99,228.74c-.53,1.72-1.54,3.38-2.99,4.93h-52.2c-1.45-1.55-2.45-3.21-2.99-4.93h58.18ZM95.9,247.65c19.05,0,34.56-9.78,34.56-21.81s-15.51-21.81-34.56-21.81-34.56,9.78-34.56,21.81,15.5,21.81,34.56,21.81Z" style="fill-rule:evenodd; stroke-width:0px;"/><path d="M60.65,206.26h0c1.46-12.17,17-21.75,35.39-21.8,18.39.06,33.93,9.65,35.39,21.87,2.43,17.34,2.62,19.83,2.62,20.17,0,13.44-17.06,24.41-38.01,24.47-20.96-.05-38.01-11.03-38.01-24.47,0-.35.18-2.83,2.62-20.24M96.03,84.09c28.71.04,51.9,12.18,57.71,30.21,6.81,21.18-7.86,53.62-25.48,76.53-7.65-7.08-19.6-11.34-32.07-11.41h-.3c-12.47.07-24.42,4.32-32.07,11.41-17.63-22.9-32.3-55.35-25.49-76.53,5.81-18.02,29-30.17,57.71-30.21M187.86,129.03c-1.34-.96-2.98-1.46-4.68-1.46h-.34c2.09-10.12,3.55-20.24,4.33-30.07,2.18-27.34-4.92-50.73-20.56-67.64C149.94,11.83,124.16,1.49,95.89,1.49c-7.09,0-13.43.69-17.05,1.36-1.6-.84-2.93-1.61-4.17-2.42l-.3-.19c-.64-.42-1.53-.24-1.97.4l-1.89,2.79c-.22.32-.3.71-.23,1.09.07.39.3.72.63.93l.3.19c4.91,3.22,10.26,5.63,14.68,6.63,4.87,1.1,7.28,3.45,8.29,4.75l.19.24c.42.53,1.16.69,1.79.39l3.02-1.58c.36-.19.63-.53.72-.93.1-.41.02-.84-.23-1.18l-.24-.34c-.85-1.19-3.21-3.97-7.69-5.95,1.56-.07,3.16-.11,4.15-.11,26.61,0,50.76,9.64,66.26,26.43,14.66,15.88,21.04,37.09,18.97,63.05-.89,11.17-2.7,22.8-5.36,34.57l-.3,1.54c-.1.52.04,1.06.38,1.47.34.41.85.65,1.38.65h2.05c.4,0,.77-.13,1.1-.38l.32-.26c1.25-.96,2.81-1.23,3.64-.64,1.79,1.26,1.77,5.82-.03,11.33,0,0-4.25,13.12-5.58,17.06-2.05,6.05-5.69,10.15-9.85,11.14l.08-.2.12-.27c.23-.54.47-1.08.7-1.65.16-.44.15-.94-.03-1.36-.19-.43-.55-.78-1-.96l-2.32-.91c-.91-.34-1.94.11-2.31,1.01-7.2,18.08-15.85,33.14-26.42,46-.37-2.7-.8-5.86-1.31-9.5-.47-3.86-2.05-7.57-4.71-11.05,18.75-24.09,34.29-58.67,26.82-81.85-6.47-20.11-31.58-33.65-62.49-33.7-30.9.05-56.01,13.59-62.48,33.7-7.46,23.18,8.07,57.76,26.81,81.84-2.66,3.49-4.25,7.2-4.7,11.03-.53,3.79-.98,7.05-1.35,9.82-10.71-12.95-19.45-28.11-26.69-46.31-.38-.91-1.39-1.35-2.31-1l-2.31.91c-.45.17-.81.53-1,.97-.18.43-.19.93-.02,1.36.26.66.54,1.3.81,1.93.02.05.05.1.07.16-4.21-.99-7.77-5.01-9.84-11.12-1.36-4.01-5.57-17.06-5.57-17.06-1.81-5.51-1.82-10.06-.03-11.33.86-.61,2.37-.32,3.78.74l.38.24c.33.2.68.3,1.07.27.88-.06,3.38-.35,3.49-.38,2.09-.53,4.15-2.33,5.63-4.96,2.35-4.17,4.03-10.23,5.97-17.25,3.87-14.04,8.7-31.52,21.2-39.4,14.03-8.84,26.14-7.28,40.17-5.46,13.53,1.73,28.84,3.71,48.73-3.22l.17.11c1.52,10.82,8.34,25.03,23,32.68,1.23.61,2.73.14,3.37-1.06.31-.59.37-1.27.17-1.91-.2-.63-.64-1.15-1.23-1.46-13.49-7.03-19.42-20.1-20.48-29.98-.08-.75-.51-1.44-1.15-1.85l-2.19-1.39c-.67-.42-1.46-.51-2.19-.24-19.37,7.02-34.39,5.08-47.63,3.36-14.34-1.83-27.89-3.57-43.41,6.21-14.12,8.91-19.24,27.42-23.37,42.36-1.84,6.66-3.43,12.42-5.48,16.06-.68,1.23-1.38,1.88-1.83,2.22-2.44-11.12-4.1-22.09-4.94-32.63C6.44,44.25,38.12,22.98,57.39,14.99l.11-.05c2.35,1.02,4.55,1.77,6.56,2.22,4.87,1.1,7.28,3.45,8.29,4.75l.18.23c.42.55,1.15.71,1.79.4l3.02-1.58c.36-.19.63-.53.72-.93.1-.4.02-.84-.23-1.18l-.24-.33c-1.21-1.69-4.82-5.8-12.17-7.45-3.7-.84-8.29-2.92-12.59-5.73l-.28-.19c-.64-.43-1.53-.26-1.98.39l-1.89,2.79c-.22.32-.3.72-.23,1.1.07.38.3.72.63.92l.3.19c.44.29.9.57,1.35.84C18.26,26.79,1.47,58.14,4.6,97.51c.77,9.74,2.23,19.85,4.33,30.07-1.8-.08-3.57.43-5.01,1.45-2.48,1.76-6.08,6.45-2.23,18.17,0,0,4.22,13.02,5.59,17.11,3.86,11.43,11.62,15.51,17.59,15.51.23,0,.44-.02.68-.04,7.57,17.05,16.65,31.38,27.72,43.81-.18,1.6-.27,2.54-.27,2.93,0,16.15,19.24,29.38,42.89,29.5h.3c23.65-.11,42.88-13.34,42.88-29.5,0-.42-.09-1.45-.31-3.23,10.96-12.37,19.95-26.6,27.46-43.51.23.02.45.04.68.04,5.97,0,13.73-4.07,17.59-15.51,1.5-4.43,5.59-17.09,5.59-17.09,3.85-11.72.26-16.42-2.22-18.17" style="fill-rule:evenodd; stroke-width:0px;"/></svg>