<?xml version="1.0" encoding="utf-8"?>
<!-- Generator: Adobe Illustrator 28.2.0, SVG Export Plug-In . SVG Version: 6.00 Build 0)  -->
<svg version="1.1" xmlns="http://www.w3.org/2000/svg" xmlns:xlink="http://www.w3.org/1999/xlink" x="0px" y="0px"
	 viewBox="0 0 199.9 256" style="enable-background:new 0 0 199.9 256;" xml:space="preserve">
<style type="text/css">
	.st0{fill-rule:evenodd;clip-rule:evenodd;}
</style>
<path class="st0" d="M91.4,172.5c3.1,0.9,5.9,1.3,8.7,1.3s5.6-0.4,8.7-1.3c1.4-0.4,2.2-1.8,1.8-3.2c-0.2-0.7-0.6-1.2-1.3-1.6
	c-0.6-0.3-1.3-0.4-2-0.2c-5.2,1.5-9.3,1.5-14.5,0c-0.7-0.2-1.4-0.1-2,0.2c-0.6,0.3-1.1,0.9-1.3,1.6c-0.2,0.7-0.1,1.4,0.2,2
	C90.2,171.8,90.7,172.3,91.4,172.5"/>
<path class="st0" d="M195.8,134.5c-1.4-1-3.1-1.5-4.9-1.5h-0.4c2.2-10.6,3.7-21.1,4.5-31.3c2.3-28.5-5.1-52.9-21.4-70.5
	C156.3,12.3,129.4,1.5,99.9,1.5c-7.4,0-14,0.7-17.8,1.4c-1.7-0.9-3.1-1.7-4.3-2.5l-0.3-0.2c-0.7-0.4-1.6-0.3-2.1,0.4l-2,2.9
	c-0.2,0.3-0.3,0.7-0.2,1.1c0.1,0.4,0.3,0.7,0.7,0.9l0.3,0.2c5.1,3.3,10.7,5.9,15.3,6.9c5.1,1.1,7.6,3.6,8.6,4.9l0.2,0.2
	c0.4,0.6,1.2,0.7,1.9,0.4l3.2-1.6c0.4-0.2,0.7-0.6,0.8-1c0.1-0.4,0-0.9-0.2-1.2l-0.2-0.4c-0.9-1.2-3.3-4.1-8-6.2
	c1.6-0.1,3.3-0.1,4.3-0.1c27.7,0,52.9,10,69.1,27.5c15.3,16.6,21.9,38.7,19.8,65.7c-0.9,11.7-2.8,23.8-5.6,36l-0.3,1.6
	c-0.1,0.6,0,1.1,0.4,1.5s0.9,0.7,1.4,0.7h2.1c0.4,0,0.8-0.1,1.1-0.4l0.3-0.3c1.3-1,2.9-1.3,3.8-0.7c1.9,1.3,1.9,6.1,0,11.8L190,158
	c-1.1,3.4-2.2,7-3.7,11.2c-2.1,6.3-5.9,10.6-10.3,11.6l0.1-0.2l0.1-0.3c0.2-0.6,0.5-1.1,0.7-1.7c0.2-0.5,0.2-1,0-1.4
	c-0.2-0.4-0.6-0.8-1-1l-2.4-0.9c-0.9-0.4-2,0.1-2.4,1c-10.5,26.3-23.6,46.3-41.3,62.7c-9.5,8.9-18.8,10.7-29.8,10.7
	s-20.3-1.8-29.8-10.7c-17.7-16.4-30.8-36.4-41.3-62.7c-0.4-0.9-1.4-1.4-2.4-1l-2.4,0.9c-0.5,0.2-0.8,0.6-1,1s-0.2,1,0,1.4
	c0.2,0.6,0.5,1.3,0.8,1.9l0.1,0.3c-4.4-1-8.1-5.2-10.2-11.6c-1.5-4.4-2.7-8.2-3.7-11.3l-2.1-6.5c-1.9-5.7-1.9-10.5,0-11.8
	c0.9-0.6,2.5-0.3,3.9,0.8l0.4,0.3c0.3,0.2,0.8,0.3,1.1,0.3c0.9-0.1,3.5-0.4,3.7-0.4c2.2-0.5,4.3-2.4,5.9-5.2
	c2.5-4.4,4.2-10.7,6.2-18c4-14.6,9.1-32.8,22.1-41.1c14.6-9.2,27.2-7.6,41.9-5.7c14.1,1.8,30.1,3.9,50.8-3.3l0.2,0.1
	c1.6,11.3,8.7,26.1,24,34.1c1.3,0.6,2.8,0.2,3.5-1.1c0.3-0.6,0.4-1.3,0.2-2c-0.2-0.7-0.7-1.2-1.3-1.5c-14.1-7.3-20.2-20.9-21.3-31.2
	c-0.1-0.8-0.5-1.5-1.2-1.9l-2.3-1.5c-0.7-0.4-1.5-0.5-2.3-0.2c-20.2,7.3-35.8,5.3-49.6,3.5c-14.9-1.9-29.1-3.7-45.2,6.5
	c-14.7,9.3-20.1,28.6-24.3,44.1c-1.9,7-3.6,13-5.7,16.8c-0.7,1.3-1.4,2-1.9,2.3c-2.5-11.6-4.3-23-5.1-34C6.7,46.1,39.7,24,59.8,15.6
	l0.1-0.1c2.5,1.1,4.8,1.9,6.8,2.3c5.1,1.1,7.6,3.6,8.6,4.9l0.2,0.2c0.4,0.6,1.2,0.7,1.9,0.4l3.2-1.6c0.4-0.2,0.7-0.6,0.8-1
	s0-0.9-0.2-1.2l-0.2-0.4c-1.3-1.8-5-6-12.7-7.8c-3.9-0.9-8.7-3.1-13.1-6l-0.3-0.2c-0.7-0.4-1.6-0.3-2,0.4l-2,2.9
	c-0.2,0.3-0.3,0.7-0.2,1.1c0.1,0.4,0.3,0.7,0.7,1l0.3,0.2c0.5,0.3,0.9,0.6,1.4,0.9C19,27.9,1.5,60.6,4.8,101.6
	c0.8,10.1,2.3,20.7,4.5,31.3c-1.9-0.1-3.7,0.4-5.2,1.5c-2.6,1.8-6.3,6.7-2.3,18.9l2.1,6.4c1.1,3.5,2.3,7.1,3.7,11.4
	c4,11.9,12.1,16.2,18.3,16.2c0.2,0,0.5,0,0.7,0c10.3,23.1,22.7,41,39.2,56.3C77.5,254.5,89.1,256,99.9,256s22.4-1.5,34.1-12.4
	c16.4-15.3,28.9-33.2,39.2-56.3c0.2,0,0.5,0,0.7,0c6.2,0,14.3-4.2,18.3-16.2c1.6-4.6,2.8-8.5,3.9-11.8l2-6.1
	C202.1,141.2,198.4,136.3,195.8,134.5"/>
<path class="st0" d="M141.9,135.6c0-3.3-4.2-5.9-9.5-5.9s-9.5,2.6-9.5,5.9s4.2,5.9,9.5,5.9S141.9,138.8,141.9,135.6 M67.3,141.5
	c5.2,0,9.5-2.6,9.5-5.9s-4.2-5.9-9.5-5.9s-9.5,2.6-9.5,5.9S62,141.5,67.3,141.5 M79.3,200.7h41.3c-2.4,5.8-8.2,14.8-20.7,14.8
	S81.7,206.5,79.3,200.7 M99.9,220.8c15.2,0,23.8-11.3,26.8-21.9c0.2-0.8,0.1-1.6-0.4-2.3s-1.3-1-2.1-1H75.6c-0.8,0-1.6,0.4-2.1,1
	s-0.7,1.5-0.4,2.3C76.1,209.4,84.8,220.8,99.9,220.8 M147.3,121.5c0.3-0.7,0.2-1.3,0-2c-0.3-0.7-0.8-1.1-1.4-1.4
	c-3-1.2-7.7-2.6-13.4-2.6s-10.5,1.4-13.5,2.7c-1.3,0.5-2,2.1-1.4,3.4c0.4,1,1.3,1.6,2.4,1.6c0.3,0,0.7-0.1,1-0.2
	c2.6-1,6.6-2.3,11.5-2.3c4.9,0,8.9,1.2,11.5,2.2C145.3,123.5,146.8,122.8,147.3,121.5 M78.8,123c0.3,0.1,0.6,0.2,1,0.2
	c1.1,0,2-0.6,2.4-1.6c0.3-0.7,0.2-1.3,0-2s-0.8-1.1-1.4-1.4c-3-1.2-7.7-2.7-13.5-2.7s-10.5,1.4-13.4,2.6c-0.7,0.3-1.2,0.8-1.4,1.4
	c-0.3,0.6-0.3,1.3,0,2c0.5,1.3,2,2,3.4,1.4c2.5-1,6.6-2.2,11.4-2.2S76.2,121.9,78.8,123"/>
</svg>
