<?xml version="1.0" encoding="UTF-8"?><svg xmlns="http://www.w3.org/2000/svg" viewBox="0 0 191.27 256"><path d="M95.29,209.86c-6.56,0-11.91-5.34-11.91-11.9s5.35-11.9,11.91-11.9,11.9,5.34,11.9,11.9-5.34,11.9-11.9,11.9M95.29,181.07c-9.32,0-16.89,7.58-16.89,16.88s7.57,16.89,16.89,16.89,16.88-7.58,16.88-16.89-7.57-16.88-16.88-16.88" style="fill-rule:evenodd; stroke-width:0px;"/><path d="M95.29,218.65c-11.42,0-20.7-9.28-20.7-20.7s9.28-20.69,20.7-20.69,20.69,9.28,20.69,20.69-9.28,20.7-20.7,20.7M95.29,172.27c-14.16,0-25.68,11.52-25.68,25.68s11.52,25.69,25.68,25.69,25.68-11.52,25.68-25.69-11.52-25.68-25.68-25.68" style="fill-rule:evenodd; stroke-width:0px;"/><path d="M173.79,199.14c.02.06.01.13-.02.18l-26.06,50.49c-.06.11-.2.15-.31.1l-5.49-2.84,26.27-50.9,5.48,2.84c.06.03.1.07.11.12h0s0,0,0,0ZM17.7,199l5.5-2.82,26.27,50.9-5.48,2.82c-.11.06-.26.01-.31-.1l-26.06-50.48c-.03-.06-.03-.12-.02-.19.02-.07.07-.11.11-.14ZM44.03,188.18c2.14.69,3.88,2.16,4.91,4.15l18.57,35.98c1.03,1.98,1.22,4.26.54,6.4s-2.15,3.88-4.15,4.91l-10,5.17-26.27-50.9,10-5.16c1.97-1.02,4.31-1.21,6.41-.54h0ZM118.04,233.44c-7.73,4.82-15.33,5.5-22.4,5.5s-14.6-.66-22.31-5.44c.27-2.61-.2-5.18-1.38-7.46l-18.57-35.98c-.12-.25-.28-.48-.44-.71,12.14-22.53,32.55-39.35,42.77-39.37,10.21.02,30.63,16.84,42.77,39.36-.15.23-.32.47-.45.71l-18.57,35.98c-1.17,2.27-1.65,4.82-1.4,7.4h0ZM149.91,187.78c1.34,0,2.64.32,3.84.94l10,5.16-26.27,50.9-10-5.16c-4.11-2.13-5.73-7.2-3.61-11.31l18.58-35.98c1.02-1.98,2.76-3.46,4.9-4.15.83-.26,1.7-.4,2.57-.4h0ZM187.37,128.69c-1.42-1.02-3.18-1.53-5-1.45,2.09-10.11,3.54-20.19,4.32-30,2.17-27.27-4.92-50.59-20.51-67.46C149.55,11.8,123.84,1.48,95.64,1.48c-7.07,0-13.39.69-17,1.35-1.6-.83-2.93-1.6-4.16-2.4l-.29-.19c-.64-.43-1.51-.25-1.96.39l-1.89,2.78c-.22.31-.31.71-.23,1.08.07.39.3.72.62.93l.3.19c4.89,3.21,10.22,5.62,14.63,6.62,4.87,1.09,7.27,3.43,8.27,4.73l.19.24c.41.53,1.15.7,1.78.39l3.02-1.57c.36-.2.62-.54.72-.94s.02-.82-.23-1.17l-.24-.33c-.85-1.19-3.2-3.96-7.67-5.93,1.55-.07,3.15-.11,4.14-.11,26.54,0,50.63,9.61,66.09,26.37,14.63,15.83,20.99,36.99,18.92,62.88-.89,11.14-2.69,22.74-5.35,34.48l-.28,1.53c-.1.53.03,1.07.37,1.47.33.41.83.65,1.38.65h2.05c.4,0,.77-.13,1.09-.37l.32-.25c1.25-.96,2.8-1.24,3.64-.65,1.79,1.26,1.78,5.81-.02,11.31,0,0-4.15,12.81-5.57,17-2.04,6.03-5.67,10.13-9.82,11.12l.09-.21c.27-.62.54-1.25.81-1.91.17-.45.16-.93-.03-1.36-.19-.43-.54-.78-.99-.96l-2.33-.91c-.91-.34-1.94.11-2.3,1-2.15,5.42-4.49,10.64-7.09,15.88l-.58-.29c-3.18-1.64-6.81-1.95-10.21-.86-1.4.44-2.69,1.1-3.86,1.96-5.48-9.69-13.35-19.58-21.65-27.19-9.26-8.51-18.02-13.2-24.66-13.22-6.61.02-15.35,4.71-24.62,13.22-8.3,7.62-16.16,17.51-21.65,27.2-1.17-.86-2.47-1.52-3.87-1.96-3.4-1.09-7.03-.79-10.2.85l-.61.32-.12-.16c-2.64-5.3-4.95-10.45-7.05-15.74-.36-.91-1.37-1.35-2.31-1l-2.32.91c-.44.18-.79.53-.98.95-.19.44-.19.92-.02,1.37.22.56.45,1.08.68,1.62l.1.26.1.22c-4.2-.99-7.75-5-9.81-11.09-1.35-4-5.56-17.01-5.56-17.01-1.8-5.5-1.81-10.03-.03-11.3.86-.61,2.36-.31,3.77.74l.38.24c.32.2.68.3,1.07.27.87-.06,3.36-.35,3.49-.38,2.09-.52,4.13-2.33,5.61-4.95,2.35-4.17,4.02-10.21,5.95-17.21,3.86-14.01,8.68-31.43,21.14-39.29,13.99-8.82,26.08-7.26,40.06-5.46,13.49,1.74,28.77,3.7,48.61-3.21l.17.11c1.51,10.79,8.31,24.97,22.94,32.59,1.22.62,2.73.14,3.36-1.06.31-.59.37-1.26.17-1.91-.2-.64-.64-1.15-1.23-1.46-13.46-7.02-19.38-20.05-20.43-29.91-.08-.74-.51-1.43-1.15-1.84l-2.19-1.4c-.66-.41-1.46-.51-2.18-.24-19.32,7-34.29,5.06-47.51,3.35-14.3-1.83-27.81-3.56-43.3,6.2-14.09,8.88-19.19,27.34-23.31,42.24-1.84,6.65-3.43,12.4-5.47,16.02-.69,1.23-1.39,1.89-1.83,2.21-2.44-11.09-4.09-22.04-4.93-32.54C6.42,44.14,38.02,22.92,57.23,14.95l.11-.05c2.35,1.03,4.55,1.77,6.54,2.22,4.86,1.09,7.26,3.44,8.27,4.73l.18.23c.41.54,1.15.7,1.79.4l3.01-1.58c.37-.19.63-.53.73-.93s.02-.83-.23-1.17l-.24-.33c-1.21-1.68-4.8-5.78-12.14-7.43-3.69-.83-8.27-2.91-12.56-5.71l-.29-.19c-.64-.43-1.52-.26-1.97.39l-1.89,2.78c-.22.32-.31.71-.23,1.09.07.37.3.71.62.92l.3.18c.44.29.9.57,1.35.84C18.21,26.73,1.46,57.99,4.59,97.25c.78,9.72,2.22,19.81,4.32,30-1.81-.11-3.57.43-5,1.44-2.48,1.76-6.07,6.44-2.23,18.12,0,0,4.09,12.66,5.58,17.06,3.85,11.4,11.59,15.46,17.54,15.46.23,0,.44-.02.67-.04,1.02,2.3,2.13,4.64,3.37,7.15l-13.92,7.19c-3.08,1.59-4.29,5.39-2.71,8.48l26.06,50.49c1.09,2.1,3.23,3.4,5.6,3.4,1.01,0,1.97-.24,2.88-.7l19.92-10.29c2.3-1.17,4.22-2.95,5.59-5.12,8.26,4.48,16.11,5.1,23.37,5.1s15.12-.62,23.44-5.15c1.37,2.19,3.31,3.98,5.63,5.17l19.92,10.29c.88.46,1.88.7,2.88.7,2.36,0,4.51-1.3,5.6-3.4l26.06-50.49c1.59-3.08.38-6.88-2.7-8.48l-14-7.22c1.21-2.44,2.3-4.77,3.35-7.11.22.02.45.04.67.04,5.95,0,13.7-4.06,17.54-15.46,1.47-4.37,5.57-17.05,5.57-17.05,3.84-11.69.26-16.38-2.22-18.12h0Z" style="fill-rule:evenodd; stroke-width:0px;"/><path d="M141.73,113.15c0-1.38-1.12-2.5-2.48-2.5h-24.93c-1.38,0-2.5,1.12-2.5,2.5s1.12,2.5,2.5,2.5h24.93c1.37,0,2.48-1.12,2.48-2.5M117.71,129.72c0,3.18,3.98,5.65,9.06,5.65s9.07-2.53,9.07-5.65-4.07-5.66-9.07-5.66-9.06,2.54-9.06,5.66M79.34,113.15c0-1.38-1.12-2.5-2.5-2.5h-24.92c-1.37,0-2.5,1.12-2.5,2.5s1.12,2.5,2.5,2.5h24.93c1.37,0,2.49-1.12,2.49-2.5M55.31,129.72c0,3.18,3.98,5.65,9.06,5.65s9.07-2.53,9.07-5.65-4.07-5.66-9.07-5.66-9.06,2.54-9.06,5.66" style="fill-rule:evenodd; stroke-width:0px;"/></svg>